<mxfile host="app.diagrams.net" modified="2023-10-19T11:24:24.395Z" agent="Mozilla/5.0 (Windows NT 10.0; Win64; x64) AppleWebKit/537.36 (KHTML, like Gecko) Chrome/118.0.0.0 Safari/537.36" etag="OhcgSqOubSiiNzIgOKSt" version="22.0.5" type="device">
  <diagram name="Página-1" id="4eoYgO07ylHes4SL5Tbz">
    <mxGraphModel dx="880" dy="478" grid="1" gridSize="10" guides="1" tooltips="1" connect="1" arrows="1" fold="1" page="1" pageScale="1" pageWidth="827" pageHeight="1169" math="0" shadow="0">
      <root>
        <mxCell id="0" />
        <mxCell id="1" parent="0" />
        <mxCell id="eWxr23i2QZo-TieA2XmS-1" value="Actor" style="shape=umlActor;verticalLabelPosition=bottom;verticalAlign=top;html=1;outlineConnect=0;" parent="1" vertex="1">
          <mxGeometry x="90" y="10" width="30" height="60" as="geometry" />
        </mxCell>
        <mxCell id="eWxr23i2QZo-TieA2XmS-2" value="Painel de controle (Site)" style="swimlane;whiteSpace=wrap;html=1;" parent="1" vertex="1">
          <mxGeometry x="10" y="170" width="230" height="200" as="geometry" />
        </mxCell>
        <mxCell id="eWxr23i2QZo-TieA2XmS-4" value="- Registrar e visualizar horários dos&lt;br&gt;treinos de&amp;nbsp;cada modalidade,&lt;br&gt;podendo editá-los.&lt;br&gt;- Cadastrar, atualizar e deletar&amp;nbsp;&lt;br&gt;jogadores. No final do semestre pode&lt;br&gt;zerar as horas totais de todos os&amp;nbsp;&lt;br&gt;jogadores&lt;br&gt;- Mostrar todos os treinos que&lt;br&gt;aconteceram com os nomes dos&lt;br&gt;jogadores presentes" style="text;html=1;align=left;verticalAlign=middle;resizable=0;points=[];autosize=1;strokeColor=none;fillColor=none;" parent="eWxr23i2QZo-TieA2XmS-2" vertex="1">
          <mxGeometry x="10" y="20" width="220" height="160" as="geometry" />
        </mxCell>
        <mxCell id="eWxr23i2QZo-TieA2XmS-5" style="edgeStyle=orthogonalEdgeStyle;rounded=0;orthogonalLoop=1;jettySize=auto;html=1;entryX=0.323;entryY=-0.015;entryDx=0;entryDy=0;entryPerimeter=0;" parent="1" source="eWxr23i2QZo-TieA2XmS-1" target="eWxr23i2QZo-TieA2XmS-2" edge="1">
          <mxGeometry relative="1" as="geometry">
            <Array as="points">
              <mxPoint x="60" y="40" />
              <mxPoint x="60" y="120" />
              <mxPoint x="81" y="120" />
            </Array>
          </mxGeometry>
        </mxCell>
        <mxCell id="eWxr23i2QZo-TieA2XmS-6" value="Bot discord" style="swimlane;whiteSpace=wrap;html=1;" parent="1" vertex="1">
          <mxGeometry x="414" y="10" width="416" height="248" as="geometry" />
        </mxCell>
        <mxCell id="eWxr23i2QZo-TieA2XmS-7" value="- Cria um canal de voz para o treino, que será deletado quando ele acabar&lt;br&gt;- Detecta quando o usuário entrou e saiu&amp;nbsp; da chamada e saiu e contabiliza&lt;br&gt;&amp;nbsp;sua presença. Calcula o tempo entre a entrada e saída do jogador na&lt;br&gt;chamada e contabiliza as horas de treino.&lt;br&gt;- O bot envia uma mensagem, mencionando os membros dos times em&lt;br&gt;um canal de texto 20/15 minutos antes e começa a&amp;nbsp; registrar as entradas&lt;br&gt;no canal de voz daquela modalidade até um 20/30 minutos depois do&lt;br&gt;horário marcado do treino (em caso de atraso). Após o tempo de duração&lt;br&gt;do treino (especificado anteriormente na marcação) ele&amp;nbsp; registra a saída&lt;br&gt;dos usuários na chamada (durante um período maior de tempo, pois os&lt;br&gt;treinos podem se estender. Após isso, ele contabiliza a presença&lt;br&gt;daquele dia de treino e mostra no final do semestre a quantidades de&lt;br&gt;dias que o jogador esteve presente.&lt;br&gt;-Bot enviar mensagem no canal de texto do discord com os horários dos&lt;br&gt;treinos marcados" style="text;html=1;align=center;verticalAlign=middle;resizable=0;points=[];autosize=1;strokeColor=none;fillColor=none;" parent="eWxr23i2QZo-TieA2XmS-6" vertex="1">
          <mxGeometry x="-7" y="18" width="420" height="230" as="geometry" />
        </mxCell>
        <mxCell id="eWxr23i2QZo-TieA2XmS-15" value="Jogadores" style="swimlane;fontStyle=0;childLayout=stackLayout;horizontal=1;startSize=26;fillColor=none;horizontalStack=0;resizeParent=1;resizeParentMax=0;resizeLast=0;collapsible=1;marginBottom=0;whiteSpace=wrap;html=1;" parent="1" vertex="1">
          <mxGeometry x="687" y="560" width="140" height="200" as="geometry">
            <mxRectangle x="10" y="430" width="100" height="30" as="alternateBounds" />
          </mxGeometry>
        </mxCell>
        <mxCell id="eWxr23i2QZo-TieA2XmS-16" value="+ Nome: string" style="text;strokeColor=none;fillColor=none;align=left;verticalAlign=top;spacingLeft=4;spacingRight=4;overflow=hidden;rotatable=0;points=[[0,0.5],[1,0.5]];portConstraint=eastwest;whiteSpace=wrap;html=1;" parent="eWxr23i2QZo-TieA2XmS-15" vertex="1">
          <mxGeometry y="26" width="140" height="26" as="geometry" />
        </mxCell>
        <mxCell id="eWxr23i2QZo-TieA2XmS-17" value="+ Matricula: int (id)" style="text;strokeColor=none;fillColor=none;align=left;verticalAlign=top;spacingLeft=4;spacingRight=4;overflow=hidden;rotatable=0;points=[[0,0.5],[1,0.5]];portConstraint=eastwest;whiteSpace=wrap;html=1;" parent="eWxr23i2QZo-TieA2XmS-15" vertex="1">
          <mxGeometry y="52" width="140" height="26" as="geometry" />
        </mxCell>
        <mxCell id="eWxr23i2QZo-TieA2XmS-18" value="+ Discord_name: string&lt;br&gt;&lt;br&gt;+ Modalidade: string&lt;br&gt;&lt;br&gt;+ Num_horas: int&lt;br&gt;&lt;br&gt;+ Curso: string&amp;nbsp;" style="text;strokeColor=none;fillColor=none;align=left;verticalAlign=top;spacingLeft=4;spacingRight=4;overflow=hidden;rotatable=0;points=[[0,0.5],[1,0.5]];portConstraint=eastwest;whiteSpace=wrap;html=1;" parent="eWxr23i2QZo-TieA2XmS-15" vertex="1">
          <mxGeometry y="78" width="140" height="122" as="geometry" />
        </mxCell>
        <mxCell id="eWxr23i2QZo-TieA2XmS-19" value="Treinos marcados" style="swimlane;fontStyle=0;childLayout=stackLayout;horizontal=1;startSize=26;fillColor=none;horizontalStack=0;resizeParent=1;resizeParentMax=0;resizeLast=0;collapsible=1;marginBottom=0;whiteSpace=wrap;html=1;" parent="1" vertex="1">
          <mxGeometry x="520" y="560" width="140" height="110" as="geometry">
            <mxRectangle x="10" y="430" width="100" height="30" as="alternateBounds" />
          </mxGeometry>
        </mxCell>
        <mxCell id="eWxr23i2QZo-TieA2XmS-20" value="+ Modalidade: string" style="text;strokeColor=none;fillColor=none;align=left;verticalAlign=top;spacingLeft=4;spacingRight=4;overflow=hidden;rotatable=0;points=[[0,0.5],[1,0.5]];portConstraint=eastwest;whiteSpace=wrap;html=1;" parent="eWxr23i2QZo-TieA2XmS-19" vertex="1">
          <mxGeometry y="26" width="140" height="26" as="geometry" />
        </mxCell>
        <mxCell id="eWxr23i2QZo-TieA2XmS-21" value="+ Data: date" style="text;strokeColor=none;fillColor=none;align=left;verticalAlign=top;spacingLeft=4;spacingRight=4;overflow=hidden;rotatable=0;points=[[0,0.5],[1,0.5]];portConstraint=eastwest;whiteSpace=wrap;html=1;" parent="eWxr23i2QZo-TieA2XmS-19" vertex="1">
          <mxGeometry y="52" width="140" height="26" as="geometry" />
        </mxCell>
        <mxCell id="eWxr23i2QZo-TieA2XmS-22" value="+ Duração: int" style="text;strokeColor=none;fillColor=none;align=left;verticalAlign=top;spacingLeft=4;spacingRight=4;overflow=hidden;rotatable=0;points=[[0,0.5],[1,0.5]];portConstraint=eastwest;whiteSpace=wrap;html=1;" parent="eWxr23i2QZo-TieA2XmS-19" vertex="1">
          <mxGeometry y="78" width="140" height="32" as="geometry" />
        </mxCell>
        <mxCell id="69-iGQunw_it-v9d6t12-7" style="edgeStyle=orthogonalEdgeStyle;rounded=0;orthogonalLoop=1;jettySize=auto;html=1;entryX=0.5;entryY=0;entryDx=0;entryDy=0;" edge="1" parent="1" source="eWxr23i2QZo-TieA2XmS-24" target="69-iGQunw_it-v9d6t12-1">
          <mxGeometry relative="1" as="geometry" />
        </mxCell>
        <mxCell id="eWxr23i2QZo-TieA2XmS-24" value="Banco de dados" style="swimlane;fontStyle=0;childLayout=stackLayout;horizontal=1;startSize=26;fillColor=none;horizontalStack=0;resizeParent=1;resizeParentMax=0;resizeLast=0;collapsible=1;marginBottom=0;whiteSpace=wrap;html=1;" parent="1" vertex="1">
          <mxGeometry x="414" y="350" width="170" height="110" as="geometry" />
        </mxCell>
        <mxCell id="eWxr23i2QZo-TieA2XmS-26" value="Banco de dados armazena as informações de treinos e presença dos jogadores, assim como horários e datas de presenças" style="text;strokeColor=none;fillColor=none;align=left;verticalAlign=top;spacingLeft=4;spacingRight=4;overflow=hidden;rotatable=0;points=[[0,0.5],[1,0.5]];portConstraint=eastwest;whiteSpace=wrap;html=1;" parent="eWxr23i2QZo-TieA2XmS-24" vertex="1">
          <mxGeometry y="26" width="170" height="84" as="geometry" />
        </mxCell>
        <mxCell id="eWxr23i2QZo-TieA2XmS-28" style="edgeStyle=orthogonalEdgeStyle;rounded=0;orthogonalLoop=1;jettySize=auto;html=1;entryX=0.564;entryY=0.011;entryDx=0;entryDy=0;entryPerimeter=0;" parent="1" source="eWxr23i2QZo-TieA2XmS-24" target="eWxr23i2QZo-TieA2XmS-19" edge="1">
          <mxGeometry relative="1" as="geometry">
            <Array as="points">
              <mxPoint x="499" y="510" />
              <mxPoint x="599" y="510" />
            </Array>
          </mxGeometry>
        </mxCell>
        <mxCell id="eWxr23i2QZo-TieA2XmS-29" style="edgeStyle=orthogonalEdgeStyle;rounded=0;orthogonalLoop=1;jettySize=auto;html=1;" parent="1" source="eWxr23i2QZo-TieA2XmS-26" target="eWxr23i2QZo-TieA2XmS-15" edge="1">
          <mxGeometry relative="1" as="geometry" />
        </mxCell>
        <mxCell id="eWxr23i2QZo-TieA2XmS-31" style="edgeStyle=orthogonalEdgeStyle;rounded=0;orthogonalLoop=1;jettySize=auto;html=1;entryX=0.553;entryY=0;entryDx=0;entryDy=0;entryPerimeter=0;" parent="1" source="eWxr23i2QZo-TieA2XmS-7" target="eWxr23i2QZo-TieA2XmS-24" edge="1">
          <mxGeometry relative="1" as="geometry" />
        </mxCell>
        <mxCell id="eWxr23i2QZo-TieA2XmS-32" style="edgeStyle=orthogonalEdgeStyle;rounded=0;orthogonalLoop=1;jettySize=auto;html=1;entryX=0;entryY=0.5;entryDx=0;entryDy=0;" parent="1" source="eWxr23i2QZo-TieA2XmS-4" target="eWxr23i2QZo-TieA2XmS-26" edge="1">
          <mxGeometry relative="1" as="geometry" />
        </mxCell>
        <mxCell id="69-iGQunw_it-v9d6t12-1" value="Treinos realizados" style="swimlane;fontStyle=0;childLayout=stackLayout;horizontal=1;startSize=26;fillColor=none;horizontalStack=0;resizeParent=1;resizeParentMax=0;resizeLast=0;collapsible=1;marginBottom=0;whiteSpace=wrap;html=1;" vertex="1" parent="1">
          <mxGeometry x="320" y="560" width="140" height="140" as="geometry">
            <mxRectangle x="10" y="430" width="100" height="30" as="alternateBounds" />
          </mxGeometry>
        </mxCell>
        <mxCell id="69-iGQunw_it-v9d6t12-2" value="+ Modalidade: string" style="text;strokeColor=none;fillColor=none;align=left;verticalAlign=top;spacingLeft=4;spacingRight=4;overflow=hidden;rotatable=0;points=[[0,0.5],[1,0.5]];portConstraint=eastwest;whiteSpace=wrap;html=1;" vertex="1" parent="69-iGQunw_it-v9d6t12-1">
          <mxGeometry y="26" width="140" height="26" as="geometry" />
        </mxCell>
        <mxCell id="69-iGQunw_it-v9d6t12-3" value="+ Data: date" style="text;strokeColor=none;fillColor=none;align=left;verticalAlign=top;spacingLeft=4;spacingRight=4;overflow=hidden;rotatable=0;points=[[0,0.5],[1,0.5]];portConstraint=eastwest;whiteSpace=wrap;html=1;" vertex="1" parent="69-iGQunw_it-v9d6t12-1">
          <mxGeometry y="52" width="140" height="26" as="geometry" />
        </mxCell>
        <mxCell id="69-iGQunw_it-v9d6t12-4" value="+ Duração: int&lt;br&gt;&lt;br&gt;+ Jogadores: list" style="text;strokeColor=none;fillColor=none;align=left;verticalAlign=top;spacingLeft=4;spacingRight=4;overflow=hidden;rotatable=0;points=[[0,0.5],[1,0.5]];portConstraint=eastwest;whiteSpace=wrap;html=1;" vertex="1" parent="69-iGQunw_it-v9d6t12-1">
          <mxGeometry y="78" width="140" height="62" as="geometry" />
        </mxCell>
      </root>
    </mxGraphModel>
  </diagram>
</mxfile>
